<svg width="39" height="39" viewBox="0 0 39 39" fill="none" xmlns="http://www.w3.org/2000/svg">
<path d="M29.9415 20.8187C30.77 20.8187 31.4415 20.1471 31.4415 19.3187C31.4415 18.4902 30.77 17.8187 29.9415 17.8187V20.8187ZM8.2945 18.258C7.70872 18.8438 7.70872 19.7935 8.2945 20.3793L17.8404 29.9253C18.4262 30.5111 19.376 30.5111 19.9618 29.9253C20.5476 29.3395 20.5476 28.3897 19.9618 27.8039L11.4765 19.3187L19.9618 10.8334C20.5476 10.2476 20.5476 9.29785 19.9618 8.71206C19.376 8.12628 18.4262 8.12628 17.8404 8.71206L8.2945 18.258ZM29.9415 17.8187L9.35516 17.8187V20.8187L29.9415 20.8187V17.8187Z" fill="white"/>
<circle cx="19.6483" cy="19.3187" r="17.7308" stroke="white" stroke-width="3"/>
</svg>
